<?xml version="1.0" encoding="UTF-8"?><svg id="Camada_1" xmlns="http://www.w3.org/2000/svg" viewBox="0 0 1488.81 558.93"><defs><style>.cls-1{fill:#fff;}</style></defs><path class="cls-1" d="M382.51,102.23h-13.95v.17h-88.61v18.59c0,14.2,11.52,25.72,25.72,25.72h62.89V412.38h-44.31V216.73c0-14.2-11.51-25.72-25.72-25.72h-18.59v66.44h-13.95c-16.76,0-30.36-13.59-30.36-30.35V102.23h-88.61l-13.59-.16c-16.9-.2-30.71,13.45-30.71,30.35V426.33c0,16.76,13.59,30.35,30.36,30.35h9.33v.13h93.24v-18.59c0-14.2-11.51-25.72-25.72-25.72h-62.89V146.54h44.31v195.94c0,14.2,11.52,25.72,25.72,25.72h18.59v-66.74h13.95c16.76,0,30.35,13.59,30.35,30.35v124.87h88.61l14.31-.17c16.62-.2,30-13.73,30-30.35V132.59c0-16.76-13.59-30.35-30.35-30.35Z"/><g><path class="cls-1" d="M535.61,177.47v55.91c2.65-1.47,17.95-4.12,35.31-4.12,42.08,0,61.21,21.78,61.21,59.15v88.58c0,6.77-2.35,9.12-9.12,9.12h-15.89c-6.77,0-9.12-2.35-9.12-9.12v-87.7c0-18.83-11.18-28.84-32.08-28.84-14.42,0-27.37,2.94-30.31,4.41v112.12c0,6.77-2.06,9.12-8.83,9.12h-16.19c-6.77,0-9.12-2.35-9.12-9.12V177.47c0-6.77,2.35-9.12,9.12-9.12h16.19c6.77,0,8.83,2.35,8.83,9.12Z"/><path class="cls-1" d="M700.7,194.25v2.65c0,13.54-4.41,17.95-17.95,17.95h-2.06c-13.54,0-17.95-4.41-17.95-17.95v-2.65c0-13.54,4.41-17.66,17.95-17.66h2.06c13.54,0,17.95,4.12,17.95,17.66Zm-1.77,48.26v134.49c0,6.77-2.35,9.12-9.12,9.12h-16.19c-6.77,0-8.83-2.35-8.83-9.12V242.51c0-6.77,2.06-8.83,8.83-8.83h16.19c6.77,0,9.12,2.06,9.12,8.83Z"/><path class="cls-1" d="M801.64,229.27c41.79,0,61.21,21.78,61.21,59.15v88.58c0,6.77-2.35,9.12-9.12,9.12h-16.19c-6.77,0-8.83-2.35-8.83-9.12v-87.7c0-19.42-10.59-28.84-32.08-28.84-11.48,0-20.6,1.77-28.25,3.83-1.47,.59-2.06,1.76-2.06,2.94v109.77c0,6.77-2.06,9.12-8.83,9.12h-16.19c-6.77,0-9.12-2.35-9.12-9.12v-120.95c0-9.42,2.06-12.95,11.48-16.77,11.77-4.71,29.72-10.01,57.97-10.01Z"/><path class="cls-1" d="M984.98,177.77v12.95c0,7.06-2.35,9.42-9.42,9.42-24.72,0-33.25,8.53-33.25,30.61v2.94h33.84c6.77,0,8.83,2.06,8.83,8.83v13.54c0,6.77-2.06,9.12-8.83,9.12h-33.84v111.83c0,6.77-2.06,9.12-9.12,9.12h-15.6c-7.06,0-9.42-2.35-9.42-9.12v-111.83h-17.66c-6.77,0-8.83-2.35-8.83-9.12v-13.54c0-6.77,2.06-8.83,8.83-8.83h17.66v-2.94c0-40.61,20.31-61.51,64.74-62.39h2.65c7.06,0,9.42,2.35,9.42,9.42Z"/><path class="cls-1" d="M1078.86,229.27c6.77,0,9.12,2.06,9.12,9.12v12.95c0,6.77-2.35,9.12-9.12,9.12h-10.59c-11.48,0-20.31,1.18-27.96,3.53-2.65,.59-2.94,2.06-2.94,3.53v109.47c0,6.77-2.06,9.12-8.83,9.12h-16.19c-6.77,0-9.12-2.35-9.12-9.12v-122.13c0-9.42,2.06-12.95,11.48-16.77,10.89-4.12,28.55-8.24,54.74-8.83h9.42Z"/><path class="cls-1" d="M1166.55,229.27c44.14,0,67.98,22.37,67.98,58.86v43.55c0,36.49-23.84,58.86-67.98,58.86s-67.68-22.37-67.68-58.86v-43.55c0-36.49,24.13-58.86,67.68-58.86Zm0,30.9c-21.48,0-33.55,10.01-33.55,27.96v43.55c0,17.66,12.07,27.96,33.55,27.96s33.84-10.3,33.84-27.96v-43.55c0-17.95-12.07-27.96-33.84-27.96Z"/><path class="cls-1" d="M1318.4,229.27c34.14,0,53.56,12.36,62.98,31.49,3.53,6.77,1.77,10.3-4.71,13.24l-13.24,5.3c-6.47,2.94-8.53,2.06-12.36-4.12-5-8.83-12.95-15.3-31.78-15.3s-27.66,5.3-27.66,15.89c0,13.83,11.77,16.19,34.43,18.25,35.02,3.53,60.03,11.48,60.03,47.38,0,28.84-21.78,49.15-63.56,49.15-34.72,0-56.8-12.65-65.62-35.61-2.35-6.18-.88-10.01,5.89-12.36l13.24-4.12c5.89-2.06,9.12-1.18,12.07,5.59,4.71,11.48,15.3,16.18,33.25,16.18,20.89,0,31.19-5.89,31.19-17.36,0-13.83-11.48-16.48-35.31-18.83-28.84-2.94-59.44-9.12-59.44-47.38,0-27.96,20.01-47.38,60.62-47.38Z"/></g></svg>