<?xml version="1.0" encoding="UTF-8"?><svg id="Camada_1" xmlns="http://www.w3.org/2000/svg" viewBox="0 0 357.12 389.93"><path d="M303.28,17.75h-13.95v.17h-88.61v18.59c0,14.2,11.52,25.72,25.72,25.72h62.89V327.9h-44.31V132.25c0-14.2-11.51-25.72-25.72-25.72h-18.59v66.44h-13.95c-16.76,0-30.36-13.59-30.36-30.35V17.75H67.8l-13.59-.16c-16.9-.2-30.71,13.45-30.71,30.35V341.85c0,16.76,13.59,30.35,30.36,30.35h9.33v.13h93.24v-18.59c0-14.2-11.51-25.72-25.72-25.72h-62.89V62.06h44.31v195.94c0,14.2,11.52,25.72,25.72,25.72h18.59v-66.74h13.95c16.76,0,30.35,13.59,30.35,30.35v124.87h88.61l14.31-.17c16.62-.2,30-13.73,30-30.35V48.11c0-16.76-13.59-30.35-30.35-30.35Z"/></svg>